<svg width="230" height="130" viewBox="0 0 230 130" fill="none" xmlns="http://www.w3.org/2000/svg">
<circle cx="115" cy="70" r="58.5" stroke="black" stroke-opacity="0.1" stroke-width="3"/>
<path d="M122.627 86.0962C127.058 86.0962 131.304 84.8039 134.996 82.3115L143.581 86.0962C143.673 86.0962 143.765 86.1885 143.858 86.1885C144.042 86.1885 144.227 86.0962 144.319 86.0038C144.504 85.8192 144.596 85.5423 144.504 85.2654L141.458 75.3885C143.488 71.9731 144.504 68.1885 144.504 64.2192C144.504 52.1269 134.627 42.25 122.535 42.25C110.442 42.25 100.75 52.0346 100.75 64.1269C100.75 76.2192 110.535 86.0962 122.627 86.0962ZM122.627 43.6346C133.981 43.6346 143.212 52.8654 143.212 64.2192C143.212 68.0038 142.196 71.6962 140.165 74.9269C140.073 75.1115 140.073 75.2962 140.073 75.4808L142.75 84.1577L135.181 80.8346C134.996 80.7423 134.719 80.7423 134.535 80.9269C131.027 83.4192 126.965 84.7115 122.627 84.7115C111.273 84.7115 102.042 75.4808 102.042 64.1269C102.042 52.7731 111.273 43.6346 122.627 43.6346Z" fill="black" fill-opacity="0.8"/>
<path d="M112.231 59.7766C109.831 59.7766 107.893 61.7151 107.893 64.2074C107.893 66.6997 109.831 68.6381 112.231 68.6381C114.631 68.6381 116.662 66.6997 116.662 64.2074C116.662 61.7151 114.631 59.7766 112.231 59.7766ZM112.231 67.1612C110.57 67.1612 109.277 65.7766 109.277 64.1151C109.277 62.4535 110.662 61.0689 112.231 61.0689C113.8 61.0689 115.277 62.4535 115.277 64.1151C115.277 65.7766 113.893 67.1612 112.231 67.1612Z" fill="black" fill-opacity="0.8"/>
<path d="M118.969 64.1153C118.969 66.5153 120.908 68.5461 123.4 68.5461C125.8 68.5461 127.739 66.6076 127.739 64.1153C127.739 61.623 125.8 59.6846 123.4 59.6846C120.908 59.7769 118.969 61.7153 118.969 64.1153ZM123.308 61.1615C124.969 61.1615 126.262 62.5461 126.262 64.2076C126.262 65.8692 124.877 67.2538 123.308 67.2538C121.739 67.2538 120.262 65.8692 120.262 64.2076C120.262 62.5461 121.646 61.1615 123.308 61.1615Z" fill="black" fill-opacity="0.8"/>
<path d="M134.385 68.5461C136.785 68.5461 138.816 66.6076 138.816 64.1153C138.816 61.623 136.877 59.6846 134.385 59.6846C131.893 59.6846 129.954 61.623 129.954 64.1153C129.954 66.6076 131.985 68.5461 134.385 68.5461ZM134.385 61.1615C136.046 61.1615 137.431 62.5461 137.431 64.2076C137.431 65.8692 136.046 67.2538 134.385 67.2538C132.723 67.2538 131.339 65.8692 131.339 64.2076C131.339 62.5461 132.723 61.1615 134.385 61.1615Z" fill="black" fill-opacity="0.8"/>
<path d="M121.462 88.4847C117.677 91.9924 112.785 93.8385 107.615 93.8385C103.369 93.8385 99.2155 92.5462 95.7078 90.0539C95.5232 89.8693 95.2463 89.8693 95.0616 89.9616L87.4924 93.2847L90.1693 84.6077C90.2616 84.4231 90.1693 84.2385 90.077 84.0539C88.1386 80.8231 87.0309 77.1308 87.0309 73.3462C87.0309 64.8539 92.1078 57.377 99.954 54.2385C100.323 54.0539 100.508 53.6847 100.323 53.3154C100.139 52.9462 99.7693 52.7616 99.4001 52.9462C91.0001 56.2693 85.554 64.3 85.554 73.3462C85.554 77.3154 86.5693 81.1924 88.6001 84.5154L85.7386 94.3924C85.6463 94.6693 85.7386 94.9462 85.9232 95.1308C86.0155 95.2231 86.2001 95.3154 86.3847 95.3154C86.477 95.3154 86.5693 95.3154 86.6616 95.2231L95.2463 91.4385C98.9386 93.9308 103.185 95.2231 107.615 95.2231C113.062 95.2231 118.323 93.1924 122.385 89.5C122.662 89.2231 122.662 88.7616 122.385 88.4847C122.2 88.3001 121.739 88.3001 121.462 88.4847Z" fill="black" fill-opacity="0.8"/>
</svg>
