<svg width="230" height="130" viewBox="0 0 230 130" fill="none" xmlns="http://www.w3.org/2000/svg">
<circle cx="115" cy="70" r="58.5" stroke="black" stroke-opacity="0.1" stroke-width="3"/>
<path d="M137.715 56.8114C124.238 56.6268 115.562 44.6268 115.469 44.5345C115.192 44.1653 114.638 44.1653 114.362 44.5345C114.269 44.6268 105.592 56.6268 92.1154 56.8114C91.7462 56.8114 91.4693 57.0883 91.4693 57.4576C91.4693 57.7345 88.8846 85.1499 114.731 96.4114C114.823 96.4114 114.915 96.5037 115.008 96.5037C115.1 96.5037 115.192 96.5037 115.285 96.4114C141.038 85.2422 138.546 57.7345 138.546 57.4576C138.362 57.0883 138.085 56.8114 137.715 56.8114ZM114.915 94.9345C92.4846 85.0576 92.5769 62.1653 92.7616 58.196C104.762 57.7345 112.792 48.7806 114.915 46.1037C117.038 48.7806 125.069 57.7345 137.069 58.196C137.254 62.1653 137.346 85.0576 114.915 94.9345Z" fill="black" fill-opacity="0.8"/>
<path d="M132.361 61.796C124.792 60.3191 118.977 55.9806 115.377 52.6575C115.146 52.4445 114.915 52.2222 114.915 52.2222C114.915 52.2222 114.685 52.4389 114.454 52.6575C110.946 55.9806 105.038 60.3191 97.4691 61.796C97.255 61.8495 96.8787 61.9299 96.8787 61.9299C96.8787 61.9299 96.9153 62.3793 96.9153 62.5345C97.4691 69.7345 100.423 82.9345 114.546 90.2268C114.638 90.3191 114.731 90.3191 114.823 90.3191C114.915 90.3191 115.008 90.3191 115.1 90.2268C129.315 82.9345 132.048 69.7169 132.731 62.5345C132.753 62.2985 132.795 61.8759 132.795 61.8759C132.795 61.8759 132.777 61.8699 132.361 61.796ZM114.915 88.8422C101.992 82.0114 99.0384 70.0114 98.3922 63.0883C105.685 61.5191 111.315 57.4575 114.915 54.1345C118.515 57.4575 124.238 61.4268 131.438 63.0883C130.885 70.0114 127.838 82.0114 114.915 88.8422Z" fill="black" fill-opacity="0.8"/>
<path d="M111.039 65.2115V68.2577H108.915H108.177V78.9654H108.915H121.839H122.577V68.9961V68.2577H119.715V65.2115C119.715 62.8115 117.777 60.7808 115.285 60.7808C112.792 60.7808 111.039 62.8115 111.039 65.2115ZM121.192 77.4885H109.654V69.6423H111.777H119.162H121.285V77.4885H121.192ZM112.515 65.2115C112.515 63.55 113.808 62.1654 115.469 62.1654C117.131 62.1654 118.515 63.55 118.515 65.2115V68.2577H112.515V65.2115Z" fill="black" fill-opacity="0.8"/>
<path d="M115.377 71.95L114.638 71.95V75.273H115.377H116.115V71.95L115.377 71.95Z" fill="black" fill-opacity="0.8"/>
</svg>
