<svg width="80" height="80" viewBox="0 0 80 80" fill="none" xmlns="http://www.w3.org/2000/svg">
<circle cx="40" cy="40" r="39.5" stroke="black" stroke-opacity="0.1"/>
<path d="M33.5132 37.6293H43.9868C44.0689 37.6294 44.1502 37.6133 44.226 37.5819C44.3019 37.5505 44.3708 37.5044 44.4289 37.4464C44.4869 37.3884 44.5329 37.3194 44.5643 37.2436C44.5957 37.1677 44.6119 37.0864 44.6118 37.0043V35.2588C44.6118 33.7041 43.9942 32.2132 42.8949 31.1139C41.7956 30.0146 40.3046 29.397 38.75 29.397C37.1953 29.397 35.7044 30.0146 34.6051 31.1139C33.5058 32.2132 32.8882 33.7041 32.8882 35.2588V37.0043C32.8881 37.0864 32.9043 37.1677 32.9357 37.2436C32.9671 37.3194 33.0131 37.3884 33.0711 37.4464C33.1292 37.5044 33.1981 37.5505 33.2739 37.5819C33.3498 37.6133 33.4311 37.6294 33.5132 37.6293ZM34.1382 35.2588C34.1382 34.0357 34.6241 32.8626 35.489 31.9977C36.3538 31.1329 37.5269 30.647 38.75 30.647C39.9731 30.647 41.1462 31.1329 42.011 31.9977C42.8759 32.8626 43.3618 34.0357 43.3618 35.2588V36.3793H34.1382V35.2588Z" fill="#DEC377"/>
<path d="M52.7562 40.6369V36.4625H55.625C55.7154 36.4624 55.8047 36.4428 55.8868 36.4048C55.9689 36.3669 56.0418 36.3116 56.1004 36.2428C56.1591 36.174 56.2021 36.0933 56.2266 36.0063C56.251 35.9192 56.2563 35.8279 56.2421 35.7386C55.6735 33.1771 54.4754 30.7976 52.7562 28.8153V21.875C52.7562 21.7093 52.6904 21.5503 52.5732 21.4331C52.456 21.3159 52.297 21.25 52.1312 21.25H46.3125C46.1467 21.25 45.9878 21.3159 45.8706 21.4331C45.7533 21.5503 45.6875 21.7093 45.6875 21.875V23.4388C43.5151 22.4284 41.2237 21.6967 38.8678 21.261C38.7897 21.2463 38.7096 21.2463 38.6316 21.261C23.2477 24.2225 21.2756 35.625 21.2579 35.7398C21.2438 35.829 21.2492 35.9202 21.2737 36.0071C21.2982 36.0941 21.3413 36.1746 21.3999 36.2433C21.4586 36.312 21.5314 36.3672 21.6134 36.405C21.6954 36.4429 21.7847 36.4625 21.875 36.4625H24.7437V51.5063H23.6187C23.5367 51.5062 23.4554 51.5223 23.3795 51.5537C23.3037 51.5851 23.2347 51.6312 23.1767 51.6892C23.1186 51.7473 23.0726 51.8162 23.0412 51.892C23.0098 51.9679 22.9937 52.0492 22.9937 52.1313V55.625C22.9937 55.7908 23.0596 55.9497 23.1768 56.067C23.294 56.1842 23.453 56.25 23.6187 56.25H43.0201C44.0325 57.187 45.2392 57.8888 46.5542 58.3053C47.8692 58.7219 49.26 58.8428 50.6271 58.6596C51.9943 58.4764 53.3041 57.9934 54.463 57.2453C55.6219 56.4972 56.6013 55.5024 57.3312 54.332C58.061 53.1615 58.5234 51.8443 58.6852 50.4744C58.8471 49.1046 58.7044 47.7159 58.2673 46.4076C57.8303 45.0992 57.1097 43.9036 56.157 42.906C55.2043 41.9085 54.0431 41.1337 52.7562 40.6369ZM25.3687 35.2125H22.6679C23.3687 32.779 26.5479 24.9066 38.75 22.5116C41.282 22.9833 43.7314 23.8227 46.0205 25.0031C46.1158 25.0534 46.2225 25.0783 46.3302 25.0752C46.4379 25.0722 46.543 25.0413 46.6353 24.9857C46.7276 24.93 46.8039 24.8515 46.8568 24.7576C46.9098 24.6637 46.9376 24.5578 46.9375 24.45V22.5H51.5062V29.0438C51.5063 29.1923 51.5593 29.336 51.6557 29.4491C53.1062 31.1266 54.188 33.0902 54.8312 35.2125H52.1312C52.0492 35.2125 51.9679 35.2286 51.892 35.26C51.8162 35.2914 51.7472 35.3374 51.6892 35.3955C51.6311 35.4535 51.5851 35.5224 51.5537 35.5983C51.5223 35.6741 51.5062 35.7554 51.5062 35.8375V40.2443C51.4629 40.2342 51.4182 40.231 51.375 40.2215C51.1157 40.165 50.8544 40.1198 50.5913 40.0859C50.5044 40.0746 50.4178 40.0635 50.3307 40.0546C50.0133 40.0202 49.6943 40.002 49.375 40C47.6635 39.9965 45.9847 40.4685 44.5257 41.3633C44.4734 41.2657 44.3959 41.184 44.3012 41.1267C44.2065 41.0694 44.0981 41.0387 43.9874 41.0376H38.7651C38.7598 41.0376 38.7554 41.0346 38.75 41.0346C38.7446 41.0346 38.7402 41.0375 38.7349 41.0376H33.5125C33.4304 41.0376 33.3491 41.0537 33.2733 41.0851C33.1974 41.1165 33.1285 41.1625 33.0704 41.2206C33.0124 41.2786 32.9664 41.3476 32.935 41.4234C32.9036 41.4993 32.8875 41.5805 32.8875 41.6626V51.5063H25.9937V35.8375C25.9938 35.7554 25.9777 35.6741 25.9463 35.5983C25.9149 35.5224 25.8688 35.4535 25.8108 35.3955C25.7528 35.3374 25.6838 35.2914 25.608 35.26C25.5321 35.2286 25.4508 35.2125 25.3687 35.2125ZM42.6656 42.8415C42.5302 42.9795 42.4028 43.1228 42.2769 43.2677C42.1761 43.3839 42.0751 43.499 41.9805 43.6198C41.8622 43.7706 41.7534 43.927 41.6452 44.0843C41.5589 44.2093 41.4711 44.333 41.3913 44.462C41.2902 44.6256 41.2002 44.7947 41.1096 44.964C41.0391 45.096 40.9652 45.2257 40.9011 45.361C40.8171 45.5381 40.7461 45.7209 40.6736 45.9033C40.6197 46.0385 40.5611 46.1711 40.5134 46.3089C40.4465 46.5033 40.3947 46.703 40.3406 46.9023C40.3047 47.0346 40.2618 47.1644 40.2317 47.2987C40.1813 47.5233 40.1486 47.7528 40.1146 47.982C40.0977 48.0962 40.0721 48.2078 40.0594 48.323C40.0203 48.6723 40.0004 49.0235 40 49.375C40.0019 49.6943 40.0201 50.0132 40.0544 50.3306C40.0633 50.4177 40.0744 50.5043 40.0857 50.5912C40.12 50.8543 40.1652 51.1156 40.2213 51.3749C40.2307 51.4183 40.2338 51.463 40.2441 51.5061H39.375V42.2875H43.2446C43.1584 42.3615 43.0832 42.4446 43.0002 42.5213C42.8864 42.6265 42.7735 42.7317 42.6656 42.8415ZM34.1375 51.5063V42.2875H38.125V51.5063H34.1375ZM24.2437 55V52.7563H38.7379C38.7422 52.7563 38.7457 52.7587 38.75 52.7587C38.7543 52.7587 38.7578 52.7563 38.7621 52.7563H40.6292C40.708 52.9591 40.7939 53.1589 40.8869 53.3558C40.8912 53.3651 40.8964 53.3739 40.9008 53.3831C41.0433 53.6799 41.2012 53.969 41.3741 54.2493C41.4018 54.2947 41.4277 54.3408 41.4562 54.3858C41.5893 54.5954 41.7281 54.8013 41.8774 54.9999L24.2437 55ZM49.375 57.5C48.3078 57.5008 47.2509 57.2912 46.2647 56.8832C45.2786 56.4752 44.3826 55.8767 43.6279 55.1221C42.8733 54.3675 42.2748 53.4714 41.8668 52.4853C41.4588 51.4991 41.2492 50.4422 41.25 49.375C41.2499 49.0625 41.2675 48.7502 41.3027 48.4396C41.5364 46.4615 42.4868 44.6375 43.9743 43.3127C45.4617 41.9879 47.3831 41.254 49.375 41.25C49.5931 41.25 49.8103 41.2586 50.0267 41.2759C52.1191 41.4433 54.0655 42.414 55.4581 43.9845C56.8507 45.5551 57.5815 47.6037 57.4972 49.7011C57.413 51.7985 56.5203 53.7819 55.0062 55.2357C53.4921 56.6896 51.4741 57.501 49.375 57.5Z" fill="#DEC377"/>
<path d="M50.1086 48.9948H48.8861C48.533 48.9948 48.1943 48.8545 47.9446 48.6048C47.6949 48.3551 47.5546 48.0164 47.5546 47.6633C47.5546 47.3102 47.6949 46.9715 47.9446 46.7218C48.1943 46.4721 48.533 46.3318 48.8861 46.3318H51.3318C51.4975 46.3318 51.6565 46.266 51.7737 46.1488C51.8909 46.0315 51.9568 45.8726 51.9568 45.7068C51.9568 45.5411 51.8909 45.3821 51.7737 45.2649C51.6565 45.1477 51.4975 45.0818 51.3318 45.0818H50V43.75C50 43.5842 49.9341 43.4253 49.8169 43.3081C49.6997 43.1908 49.5407 43.125 49.375 43.125C49.2092 43.125 49.0502 43.1908 48.933 43.3081C48.8158 43.4253 48.75 43.5842 48.75 43.75V45.0956C48.0784 45.1296 47.4467 45.4249 46.9899 45.9184C46.5331 46.4119 46.2873 47.0644 46.3051 47.7366C46.3229 48.4088 46.6028 49.0474 47.085 49.5161C47.5673 49.9847 48.2136 50.2462 48.8861 50.2448H50.1086C50.252 50.2437 50.3942 50.271 50.527 50.3251C50.6598 50.3792 50.7806 50.4591 50.8824 50.5601C50.9842 50.6611 51.0649 50.7813 51.1201 50.9137C51.1752 51.0461 51.2036 51.1881 51.2036 51.3315C51.2036 51.4749 51.1752 51.6169 51.1201 51.7493C51.0649 51.8816 50.9842 52.0018 50.8824 52.1028C50.7806 52.2038 50.6598 52.2837 50.527 52.3378C50.3942 52.392 50.252 52.4193 50.1086 52.4182H47.4182C47.2524 52.4182 47.0934 52.484 46.9762 52.6012C46.859 52.7185 46.7932 52.8774 46.7932 53.0432C46.7932 53.2089 46.859 53.3679 46.9762 53.4851C47.0934 53.6023 47.2524 53.6682 47.4182 53.6682H48.75V55C48.75 55.1658 48.8158 55.3247 48.933 55.4419C49.0502 55.5592 49.2092 55.625 49.375 55.625C49.5407 55.625 49.6997 55.5592 49.8169 55.4419C49.9341 55.3247 50 55.1658 50 55V53.6682H50.1086C50.4165 53.6698 50.7216 53.6105 51.0065 53.4938C51.2914 53.3771 51.5505 53.2052 51.7687 52.9881C51.987 52.7709 52.1602 52.5128 52.2784 52.2285C52.3966 51.9442 52.4574 51.6394 52.4574 51.3315C52.4574 51.0236 52.3966 50.7187 52.2784 50.4344C52.1602 50.1501 51.987 49.892 51.7687 49.6749C51.5505 49.4577 51.2914 49.2859 51.0065 49.1691C50.7216 49.0524 50.4165 48.9932 50.1086 48.9948Z" fill="#DEC377"/>
</svg>
