<svg width="230" height="130" viewBox="0 0 230 130" fill="none" xmlns="http://www.w3.org/2000/svg">
<circle cx="115" cy="70" r="58.5" stroke="black" stroke-opacity="0.1" stroke-width="3"/>
<path d="M130.292 93.8208H94.6792V58.4434L106.943 46.2579H129.664V59.7799C129.664 60.0943 129.899 60.4088 130.292 60.4088C130.686 60.4088 130.921 60.173 130.921 59.7799V45.6289C130.921 45.3145 130.686 45 130.292 45H106.708C106.55 45 106.393 45.0786 106.314 45.1572L93.6572 57.8145C93.5786 57.8931 93.5 58.0503 93.5 58.2075V94.3711C93.5 94.6855 93.7358 95 94.1289 95H130.292C130.607 95 130.921 94.7642 130.921 94.3711C130.921 93.978 130.607 93.8208 130.292 93.8208Z" fill="black" fill-opacity="0.8"/>
<path d="M107.258 58.2074V48.7735C107.258 48.459 107.022 48.1445 106.629 48.1445C106.236 48.1445 106 48.3804 106 48.7735V57.6571H97.2735C96.959 57.6571 96.6445 57.893 96.6445 58.286C96.6445 58.6791 96.8804 58.915 97.2735 58.915H106.707C107.022 58.8364 107.258 58.5219 107.258 58.2074Z" fill="black" fill-opacity="0.8"/>
<path d="M124.79 63.1604H98.8467C98.5322 63.1604 98.2178 63.3962 98.2178 63.7893C98.2178 64.1824 98.4536 64.4183 98.8467 64.4183H124.79C125.105 64.4183 125.419 64.1824 125.419 63.7893C125.419 63.3962 125.105 63.1604 124.79 63.1604Z" fill="black" fill-opacity="0.8"/>
<path d="M125.34 68.4278C125.34 68.1133 125.104 67.7988 124.711 67.7988H98.7676C98.4531 67.7988 98.1387 68.0347 98.1387 68.4278C98.1387 68.8208 98.3745 69.0567 98.7676 69.0567H124.711C125.104 69.0567 125.34 68.7422 125.34 68.4278Z" fill="black" fill-opacity="0.8"/>
<path d="M98.8467 72.5942C98.5322 72.5942 98.2178 72.8301 98.2178 73.2232C98.2178 73.6163 98.4536 73.8521 98.8467 73.8521H120.073C120.388 73.8521 120.702 73.6163 120.702 73.2232C120.702 72.8301 120.466 72.5942 120.073 72.5942H98.8467Z" fill="black" fill-opacity="0.8"/>
<path d="M132.494 70.2358C127.934 70.2358 123.924 73.066 122.352 77.3113H100.497C100.339 77.3113 100.182 77.3899 100.104 77.4685L96.959 80.6132C96.8804 80.6918 96.8018 80.849 96.8018 81.0063C96.8018 81.1635 96.8018 81.2421 96.8804 81.3994L100.025 84.544C100.104 84.6226 100.261 84.7013 100.418 84.7013H103.641C103.799 84.7013 103.956 84.6226 104.034 84.544L105.843 82.7358L107.808 84.544C107.887 84.6226 108.044 84.7013 108.201 84.7013H108.987C109.145 84.7013 109.302 84.6226 109.38 84.544L111.189 82.7358L112.997 84.544C113.075 84.6226 113.233 84.7013 113.39 84.7013H114.176C114.333 84.7013 114.49 84.6226 114.569 84.544L116.377 82.7358L118.185 84.544C118.264 84.6226 118.421 84.7013 118.578 84.7013H122.116C123.689 88.9465 127.698 91.7767 132.258 91.7767C138.233 91.7767 143.107 86.9025 143.107 80.9277C143.107 74.9528 138.468 70.2358 132.494 70.2358ZM132.494 90.6761C128.248 90.6761 124.632 88.0031 123.295 83.9937C123.217 83.7579 122.981 83.6006 122.745 83.6006H119.05L117.006 81.5566C116.928 81.478 116.77 81.3994 116.613 81.3994C116.456 81.3994 116.299 81.478 116.22 81.5566L114.097 83.522H113.783L111.739 81.478C111.503 81.2421 111.11 81.2421 110.874 81.478L108.83 83.522H108.516L106.472 81.478C106.236 81.2421 105.843 81.2421 105.607 81.478L103.563 83.522H100.733L98.1382 80.9277L100.733 78.3333H122.824C123.06 78.3333 123.295 78.1761 123.374 77.9402C124.711 74.0094 128.327 71.3365 132.494 71.3365C137.839 71.3365 142.163 75.6604 142.163 81.0063C142.163 86.3522 137.839 90.6761 132.494 90.6761Z" fill="black" fill-opacity="0.8"/>
<path d="M136.424 76.9182C134.144 76.9182 132.336 78.7264 132.336 81.0063C132.336 83.2861 134.144 85.0943 136.424 85.0943C138.704 85.0943 140.512 83.2861 140.512 81.0063C140.512 78.7264 138.704 76.9182 136.424 76.9182ZM136.424 83.9151C134.852 83.9151 133.515 82.5786 133.515 81.0063C133.515 79.4339 134.852 78.0975 136.424 78.0975C137.997 78.0975 139.333 79.4339 139.333 81.0063C139.333 82.5786 138.075 83.9151 136.424 83.9151Z" fill="black" fill-opacity="0.8"/>
<path d="M125.34 48.7735C125.34 48.459 125.104 48.1445 124.711 48.1445H115.277C114.962 48.1445 114.648 48.3804 114.648 48.7735V59.7798C114.648 60.0942 114.884 60.4087 115.277 60.4087H124.711C125.025 60.4087 125.34 60.1728 125.34 59.7798V48.7735ZM124.161 59.2294H115.906V49.4024H124.161V59.2294Z" fill="black" fill-opacity="0.8"/>
</svg>
