<svg width="80" height="80" viewBox="0 0 80 80" fill="none" xmlns="http://www.w3.org/2000/svg">
<circle cx="40" cy="40" r="39.5" stroke="black" stroke-opacity="0.1"/>
<path fill-rule="evenodd" clip-rule="evenodd" d="M40 21C29.8099 21 21.4934 29.022 21.0212 39.0953H21V48.0424C21 50.7629 23.2054 52.9683 25.9259 52.9683C28.6465 52.9683 30.8519 50.7629 30.8519 48.0424V44.0212C30.8519 41.3007 28.6465 39.0953 25.9259 39.0953H22.8329C23.3034 30.0218 30.8095 22.8095 40 22.8095C49.1906 22.8095 56.6967 30.0218 57.1672 39.0953H54.0742C51.3536 39.0953 49.1482 41.3007 49.1482 44.0212V48.0424C49.1482 50.7629 51.3536 52.9683 54.0742 52.9683C55.2565 52.9683 56.3416 52.5518 57.1906 51.8574V52.0635C57.1906 54.0021 56.8623 55.2979 56.3372 56.0854C55.8554 56.8082 55.151 57.1905 54.0742 57.1905H43.1165V59H54.0742C55.6781 59 56.9844 58.3769 57.8429 57.0892C58.6582 55.8661 59.0001 54.146 59.0001 52.0635V43.1164L59.0001 40C59.0001 29.5066 50.4935 21 40 21ZM22.8095 48.0424V40.9048H25.9259C27.6471 40.9048 29.0423 42.3001 29.0423 44.0212V48.0424C29.0423 49.7635 27.6471 51.1588 25.9259 51.1588C24.2048 51.1588 22.8095 49.7635 22.8095 48.0424ZM54.0742 40.9048H57.1906V48.0424C57.1906 49.7635 55.7953 51.1588 54.0742 51.1588C52.353 51.1588 50.9577 49.7635 50.9577 48.0424V44.0212C50.9577 42.3001 52.353 40.9048 54.0742 40.9048Z" fill="#DEC377"/>
</svg>
