<svg width="230" height="130" viewBox="0 0 230 130" fill="none" xmlns="http://www.w3.org/2000/svg">
<circle cx="115" cy="70" r="58.5" stroke="black" stroke-opacity="0.1" stroke-width="3"/>
<path d="M136.416 57.5962L140.293 53.7193C141.308 52.7039 141.308 51.1347 140.293 50.1193L136.416 46.2424C136.139 45.9654 135.862 45.7808 135.585 45.6885C135.308 45.5962 134.939 45.5039 134.662 45.5039C134.016 45.5039 133.369 45.7808 132.908 46.2424L129.031 50.1193L94.9694 83.9962C94.8771 84.0885 94.8771 84.1808 94.7848 84.2731L91.4617 94.0577C91.3694 94.3347 91.4617 94.6116 91.6464 94.7962C91.831 94.8885 92.0156 94.9808 92.2002 94.9808C92.2925 94.9808 92.3848 94.9808 92.3848 94.9808L102.169 91.7501C102.262 91.7501 102.354 91.6577 102.446 91.5654L136.416 57.5962ZM101.985 90.0885L99.6771 87.7808L132.631 54.827L134.939 57.1347L101.985 90.0885ZM95.7079 85.7501L98.2002 88.2424L100.693 90.7347L98.2002 91.5654L94.8771 88.2424L95.7079 85.7501ZM133.739 47.1654C134.2 46.7039 134.939 46.7039 135.4 47.1654L139.277 51.0424C139.739 51.5039 139.739 52.2424 139.277 52.7039L135.862 56.1193L133.093 53.3501L130.323 50.5808L133.739 47.1654ZM129.4 51.5039L131.708 53.8116L98.6617 86.7654L96.3541 84.4577L129.4 51.5039ZM94.4156 89.7193L96.7233 92.027L93.2156 93.227L94.4156 89.7193Z" fill="black" fill-opacity="0.8"/>
<path d="M143.616 64.2422H133.185C132.816 64.2422 132.446 64.5191 132.446 64.9806C132.446 65.4422 132.723 65.7191 133.185 65.7191H143.616C143.985 65.7191 144.354 65.4422 144.354 64.9806C144.354 64.5191 143.985 64.2422 143.616 64.2422Z" fill="black" fill-opacity="0.8"/>
<path d="M86.3847 74.8575H100.508C100.877 74.8575 101.246 74.5806 101.246 74.1191C101.246 73.6575 100.969 73.3806 100.508 73.3806H86.3847C86.0155 73.3806 85.6462 73.6575 85.6462 74.1191C85.6462 74.5806 86.0155 74.8575 86.3847 74.8575Z" fill="black" fill-opacity="0.8"/>
<path d="M143.616 73.4729H123.954C123.585 73.4729 123.216 73.7498 123.216 74.2114C123.216 74.6729 123.492 74.9498 123.954 74.9498H143.616C143.985 74.9498 144.354 74.6729 144.354 74.2114C144.354 73.7498 143.985 73.4729 143.616 73.4729Z" fill="black" fill-opacity="0.8"/>
<path d="M143.616 82.7036H114.723C114.354 82.7036 113.985 82.9805 113.985 83.4421C113.985 83.9036 114.262 84.1805 114.723 84.1805H143.616C143.985 84.1805 144.354 83.9036 144.354 83.4421C144.354 82.9805 143.985 82.7036 143.616 82.7036Z" fill="black" fill-opacity="0.8"/>
<path d="M103 47.1652H128.2C128.569 47.1652 128.938 46.8882 128.938 46.4267C128.938 45.9652 128.661 45.6882 128.2 45.6882H103C102.631 45.6882 102.261 45.9652 102.261 46.4267C102.261 46.8882 102.631 47.1652 103 47.1652Z" fill="black" fill-opacity="0.8"/>
<path d="M96.3847 56.3964H115.769C116.139 56.3964 116.508 56.1194 116.508 55.6579C116.508 55.1964 116.231 54.9194 115.769 54.9194H96.3847C96.0155 54.9194 95.6462 55.1964 95.6462 55.6579C95.6462 56.1194 96.0155 56.3964 96.3847 56.3964Z" fill="black" fill-opacity="0.8"/>
<path d="M86.3847 65.6268H109.739C110.108 65.6268 110.477 65.3499 110.477 64.8884C110.477 64.4268 110.2 64.1499 109.739 64.1499H86.3847C86.0155 64.1499 85.6462 64.4268 85.6462 64.8884C85.6462 65.3499 86.0155 65.6268 86.3847 65.6268Z" fill="black" fill-opacity="0.8"/>
<path d="M127.923 91.9346H105.492C105.123 91.9346 104.754 92.2115 104.754 92.673C104.754 93.1346 105.031 93.4115 105.492 93.4115H127.923C128.292 93.4115 128.662 93.1346 128.662 92.673C128.662 92.2115 128.292 91.9346 127.923 91.9346Z" fill="black" fill-opacity="0.8"/>
</svg>
