<svg width="80" height="80" viewBox="0 0 80 80" fill="none" xmlns="http://www.w3.org/2000/svg">
<circle cx="40" cy="40" r="39.5" stroke="black" stroke-opacity="0.1"/>
<path d="M60 31.162H54.0459V28.5983H37.8262L35.9034 23.4709H22V54.8759H54.0459V54.3164L60 31.162ZM58.3464 32.4438L54.0459 49.1692V32.4438H58.3464ZM23.2818 24.7528H35.0151L36.9379 29.8801H52.764V31.162V53.5941H23.2818V24.7528Z" fill="#DEC377"/>
<path d="M25.8455 51.0303H41.2275V41.4165H25.8455V51.0303ZM27.1273 42.6983H39.9456V49.7484H27.1273V42.6983Z" fill="#DEC377"/>
<path d="M34.8184 47.1851H29.0501C28.6957 47.1851 28.4092 47.4715 28.4092 47.826C28.4092 48.1804 28.6957 48.4669 29.0501 48.4669H34.8184C35.1728 48.4669 35.4593 48.1804 35.4593 47.826C35.4593 47.4715 35.1728 47.1851 34.8184 47.1851Z" fill="#DEC377"/>
<path d="M29.0501 45.2623H31.6138C31.9682 45.2623 32.2547 44.9758 32.2547 44.6214C32.2547 44.267 31.9682 43.9805 31.6138 43.9805H29.0501C28.6957 43.9805 28.4092 44.267 28.4092 44.6214C28.4092 44.9758 28.6957 45.2623 29.0501 45.2623Z" fill="#DEC377"/>
<path d="M38.0229 43.9805H36.741C36.3866 43.9805 36.1001 44.267 36.1001 44.6214C36.1001 44.9758 36.3866 45.2623 36.741 45.2623H38.0229C38.3773 45.2623 38.6638 44.9758 38.6638 44.6214C38.6638 44.267 38.3773 43.9805 38.0229 43.9805Z" fill="#DEC377"/>
<path d="M36.9271 47.3707C36.8111 47.4919 36.7412 47.6521 36.7412 47.8258C36.7412 47.9988 36.8111 48.1591 36.9271 48.2744C37.0482 48.3956 37.2084 48.4667 37.3821 48.4667C37.5488 48.4667 37.7154 48.3962 37.8372 48.2808C37.9525 48.1591 38.023 47.9924 38.023 47.8258C38.023 47.6591 37.9525 47.4919 37.8372 47.3707C37.6 47.1336 37.1642 47.1336 36.9271 47.3707Z" fill="#DEC377"/>
<path d="M34.1775 45.2621C34.3442 45.2621 34.5108 45.1916 34.6326 45.0762C34.748 44.9545 34.8185 44.7878 34.8185 44.6212C34.8185 44.4475 34.748 44.2873 34.6326 44.1661C34.3955 43.929 33.9526 43.929 33.7225 44.1661C33.6065 44.2873 33.5366 44.4545 33.5366 44.6212C33.5366 44.7878 33.6065 44.9545 33.7225 45.0762C33.8436 45.1916 34.0109 45.2621 34.1775 45.2621Z" fill="#DEC377"/>
</svg>
