<svg width="80" height="80" viewBox="0 0 80 80" fill="none" xmlns="http://www.w3.org/2000/svg">
<circle cx="40" cy="40" r="39.5" stroke="black" stroke-opacity="0.1"/>
<g clip-path="url(#clip0)">
<path d="M59.6393 43.9907C58.4706 42.3626 57.2859 42.3366 54.3198 43.8974L48.5709 47.4121C47.7189 47.8655 45.9702 48.0015 44.2741 48.0302C44.5755 47.4028 44.4408 46.6541 43.8715 45.8034C43.3441 45.0167 42.6261 44.3914 41.7927 43.964C43.1741 42.8413 44.0008 41.1699 44.0008 39.3332C44.0008 36.0251 41.3094 33.333 38.0006 33.333C34.6918 33.333 32.0004 36.0251 32.0004 39.3332C32.0004 40.3206 32.2457 41.2633 32.6851 42.104C32.6764 42.098 32.6671 42.0926 32.6591 42.086C30.2657 40.2812 26.2669 40.0266 24.6675 39.9992V37.9812H20V59.3339H24.6668V57.3338H33.3338C34.6938 57.3338 36.0659 57.2298 37.4112 57.0258L46.0535 55.7118C46.3682 55.7078 46.6869 55.6704 46.9709 55.6064C47.7669 55.4944 48.5276 55.1144 49.1723 54.5064L59.2773 46.6368L59.2926 46.6241C60.08 45.9728 60.232 44.8154 59.6393 43.9907ZM35.4472 43.2327C34.1211 42.3646 33.3338 40.9166 33.3338 39.3332C33.3338 36.7598 35.4278 34.6664 38.0006 34.6664C40.5733 34.6664 42.6674 36.7598 42.6674 39.3332C42.6674 41.0573 41.7401 42.606 40.2327 43.426C40.15 43.41 40.066 43.402 39.9827 43.3893C39.8993 43.3767 39.8173 43.362 39.7327 43.3527C39.516 43.3287 39.298 43.314 39.0793 43.314H36.4792C36.1439 43.3147 35.7972 43.2873 35.4472 43.2327ZM23.3334 58.0005H21.3334V39.3145H23.3334V40.0219V57.3345V58.0005ZM58.4493 45.5921L48.3269 53.4743L48.2756 53.519C47.8289 53.9464 47.3136 54.2117 46.7196 54.2977C46.4769 54.3517 46.2349 54.379 46.0009 54.379L37.2106 55.7078C35.9312 55.9024 34.6265 56.0011 33.3338 56.0011H24.6668V41.3346C26.1449 41.3653 29.8043 41.6039 31.8564 43.1507C32.7471 43.8227 33.8145 44.2787 34.9532 44.4974L34.9632 44.5034L35.0898 44.5254C35.0965 44.5267 35.1025 44.5267 35.1092 44.528C35.3278 44.5654 35.5492 44.5954 35.7725 44.6147C35.7799 44.6154 35.7872 44.6167 35.7939 44.6174C36.0205 44.6367 36.2485 44.6481 36.4785 44.6481H39.0786C39.4453 44.6481 39.812 44.6914 40.168 44.7767L40.2107 44.7874C41.2594 45.0474 42.1707 45.6641 42.7621 46.5461C43.0428 46.9641 43.1534 47.3115 43.0594 47.4748C42.8814 47.7828 42.0554 47.9722 41.2174 48.0088C40.9447 48.0042 40.696 48.0008 40.478 48.0008H34.0005C31.9131 48.0008 30.667 48.9975 30.667 50.6676C30.667 51.0356 30.965 51.3343 31.3337 51.3343C31.7024 51.3343 32.0004 51.0356 32.0004 50.6676C32.0004 50.3376 32.0004 49.3342 34.0005 49.3342H40.4633C40.6147 49.3435 40.9054 49.3562 41.2714 49.3429C41.386 49.3449 41.5047 49.3469 41.6261 49.3489C44.7548 49.4069 47.6889 49.3909 49.2316 48.5695L54.9772 45.0561C57.7266 43.6114 58.0033 43.9987 58.5553 44.7681C58.74 45.0241 58.6926 45.3847 58.4493 45.5921Z" fill="#DEC377"/>
<path d="M41.3341 39.3332C41.3341 37.4951 39.8387 35.9998 38.0007 35.9998C36.1626 35.9998 34.6672 37.4951 34.6672 39.3332C34.6672 41.1713 36.1626 42.6666 38.0007 42.6666C39.8387 42.6666 41.3341 41.1713 41.3341 39.3332ZM38.0007 41.3333C36.898 41.3333 36.0006 40.4359 36.0006 39.3332C36.0006 38.2305 36.898 37.3331 38.0007 37.3331C39.1034 37.3331 40.0007 38.2305 40.0007 39.3332C40.0007 40.4359 39.1034 41.3333 38.0007 41.3333Z" fill="#DEC377"/>
<path d="M48.0009 32.6664C51.3097 32.6664 54.0011 29.9743 54.0011 26.6662C54.0011 23.3581 51.3097 20.666 48.0009 20.666C44.6922 20.666 42.0007 23.3581 42.0007 26.6662C42.0007 29.9743 44.6922 32.6664 48.0009 32.6664ZM48.0009 21.9994C50.5737 21.9994 52.6678 24.0928 52.6678 26.6662C52.6678 29.2396 50.5737 31.333 48.0009 31.333C45.4282 31.333 43.3341 29.2396 43.3341 26.6662C43.3341 24.0928 45.4282 21.9994 48.0009 21.9994Z" fill="#DEC377"/>
<path d="M48.0009 29.9997C49.839 29.9997 51.3344 28.5043 51.3344 26.6662C51.3344 24.8281 49.839 23.3328 48.0009 23.3328C46.1629 23.3328 44.6675 24.8281 44.6675 26.6662C44.6675 28.5043 46.1629 29.9997 48.0009 29.9997ZM48.0009 24.6661C49.1036 24.6661 50.001 25.5635 50.001 26.6662C50.001 27.7689 49.1036 28.6663 48.0009 28.6663C46.8982 28.6663 46.0009 27.7689 46.0009 26.6662C46.0009 25.5635 46.8982 24.6661 48.0009 24.6661Z" fill="#DEC377"/>
</g>
<defs>
<clipPath id="clip0">
<rect width="40" height="40" fill="white" transform="translate(20 20)"/>
</clipPath>
</defs>
</svg>
