<svg width="230" height="130" viewBox="0 0 230 130" fill="none" xmlns="http://www.w3.org/2000/svg">
<circle cx="115" cy="70" r="58.5" stroke="black" stroke-opacity="0.1" stroke-width="3"/>
<g clip-path="url(#clip0)">
<path d="M118.845 90.9373H90.9681V58.6806L105.368 44.3729H132.045V60.2498C132.045 60.6191 132.322 60.9883 132.784 60.9883C133.245 60.9883 133.522 60.7114 133.522 60.2498V43.6345C133.522 43.2652 133.245 42.896 132.784 42.896H105.091C104.907 42.896 104.722 42.9883 104.63 43.0806L89.7681 57.9422C89.6758 58.0345 89.5835 58.2191 89.5835 58.4037V91.5835C89.5835 91.9527 89.8604 92.322 90.322 92.322H118.845C119.214 92.322 119.584 92.045 119.584 91.5835C119.584 91.122 119.214 90.9373 118.845 90.9373Z" fill="black" fill-opacity="0.8"/>
<path d="M105.737 58.4038V47.3268C105.737 46.9576 105.46 46.5884 104.999 46.5884C104.537 46.5884 104.26 46.8653 104.26 47.3268V57.7576H94.0141C93.6449 57.7576 93.2756 58.0345 93.2756 58.4961C93.2756 58.9576 93.5526 59.2345 94.0141 59.2345H105.091C105.46 59.1422 105.737 58.773 105.737 58.4038Z" fill="black" fill-opacity="0.8"/>
<path d="M126.322 64.9692H95.8605C95.4913 64.9692 95.1221 65.2462 95.1221 65.7077C95.1221 66.1692 95.399 66.4462 95.8605 66.4462H126.322C126.691 66.4462 127.061 66.1692 127.061 65.7077C127.061 65.2462 126.691 64.9692 126.322 64.9692Z" fill="black" fill-opacity="0.8"/>
<path d="M126.968 71.6845C126.968 71.3153 126.691 70.946 126.23 70.946H95.768C95.3988 70.946 95.0295 71.223 95.0295 71.6845C95.0295 72.146 95.3065 72.423 95.768 72.423H126.23C126.691 72.423 126.968 72.0537 126.968 71.6845Z" fill="black" fill-opacity="0.8"/>
<path d="M95.8605 76.9231C95.4913 76.9231 95.1221 77.2 95.1221 77.6616C95.1221 78.1231 95.399 78.4 95.8605 78.4H120.784C121.153 78.4 121.522 78.1231 121.522 77.6616C121.522 77.2 121.245 76.9231 120.784 76.9231H95.8605Z" fill="black" fill-opacity="0.8"/>
<path d="M95.8635 82.8999C95.4942 82.8999 95.125 83.1768 95.125 83.6384C95.125 84.0999 95.4019 84.3768 95.8635 84.3768H118.44C118.809 84.3768 119.178 84.0999 119.178 83.6384C119.178 83.1768 118.901 82.8999 118.44 82.8999H95.8635Z" fill="black" fill-opacity="0.8"/>
<path d="M126.968 47.3268C126.968 46.9576 126.691 46.5884 126.229 46.5884H115.153C114.783 46.5884 114.414 46.8653 114.414 47.3268V60.2499C114.414 60.6192 114.691 60.9884 115.153 60.9884H126.229C126.599 60.9884 126.968 60.7115 126.968 60.2499V47.3268ZM125.583 59.6038H115.891V48.0653H125.583V59.6038Z" fill="black" fill-opacity="0.8"/>
<path fill-rule="evenodd" clip-rule="evenodd" d="M134.476 92.1938L134.494 92.1773C135.351 91.3772 136.416 90.9532 137.548 90.9532C138.702 90.9532 139.66 90.0163 139.66 88.8012C139.66 87.6629 140.13 86.5399 140.917 85.7527C141.743 84.9271 141.743 83.5532 140.917 82.7276C140.079 81.8897 139.66 80.8026 139.66 79.6791C139.66 78.5045 138.702 77.5271 137.508 77.5271C136.369 77.5271 135.246 77.0566 134.459 76.2695C133.634 75.4438 132.26 75.4438 131.434 76.2695C130.596 77.1073 129.509 77.5271 128.386 77.5271C127.211 77.5271 126.234 78.4848 126.234 79.6791C126.234 80.8174 125.763 81.9404 124.976 82.7276C124.543 83.1604 124.337 83.6555 124.337 84.2402C124.337 84.793 124.549 85.3261 124.976 85.7527C125.814 86.5906 126.234 87.6777 126.234 88.8012C126.234 89.9758 127.191 90.9532 128.386 90.9532C129.524 90.9532 130.647 91.4237 131.434 92.2109C131.861 92.6375 132.394 92.8502 132.947 92.8502C133.468 92.8502 134.039 92.6315 134.459 92.2109L134.476 92.1938ZM141.06 88.8012C141.06 90.779 139.485 92.3532 137.548 92.3532C136.781 92.3532 136.055 92.6357 135.449 93.2008C134.763 93.887 133.835 94.2502 132.947 94.2502C132.018 94.2502 131.13 93.887 130.444 93.2008C129.919 92.6761 129.152 92.3532 128.386 92.3532C126.408 92.3532 124.834 90.7386 124.834 88.8012C124.834 88.0343 124.551 87.3078 123.986 86.7427C123.3 86.0565 122.937 85.1685 122.937 84.2402C122.937 83.2714 123.3 82.4238 123.986 81.7376C124.511 81.2129 124.834 80.446 124.834 79.6791C124.834 77.7013 126.448 76.1271 128.386 76.1271C129.152 76.1271 129.879 75.8446 130.444 75.2795C131.816 73.9072 134.077 73.9072 135.449 75.2795C135.974 75.8042 136.741 76.1271 137.508 76.1271C139.485 76.1271 141.06 77.7417 141.06 79.6791C141.06 80.446 141.342 81.1725 141.907 81.7376C143.28 83.11 143.28 85.3703 141.907 86.7427C141.383 87.2674 141.06 88.0343 141.06 88.8012Z" fill="black" fill-opacity="0.8"/>
<path fill-rule="evenodd" clip-rule="evenodd" d="M140.845 92.6204L142.785 96.7415L143.746 98.8198L138.653 96.9638L137.592 99.8816L136.681 101.918L135.743 99.9554L133.725 95.6366L134.993 95.0439L136.606 98.4952L137.816 95.1697L141.051 96.3464L139.579 93.2165L140.845 92.6204Z" fill="black" fill-opacity="0.8"/>
<path fill-rule="evenodd" clip-rule="evenodd" d="M131.514 95.8292L129.425 99.8766L128.362 101.905L126.733 96.734L123.773 97.6685L121.602 98.1857L122.589 96.2469L124.786 92.0166L126.029 92.662L124.272 96.0426L127.647 94.9775L128.683 98.2611L130.27 95.1871L131.514 95.8292Z" fill="black" fill-opacity="0.8"/>
<path fill-rule="evenodd" clip-rule="evenodd" d="M138.74 81.3806C138.55 80.946 138.313 80.5372 138.036 80.1605C137.418 79.3222 136.599 78.6429 135.644 78.1915C134.261 77.5373 132.688 77.406 131.215 77.8219C129.743 78.2377 128.47 79.1726 127.634 80.4537C126.797 81.7348 126.452 83.2755 126.664 84.7909C126.875 86.3064 127.628 87.6942 128.783 88.6977C129.938 89.7013 131.417 90.2527 132.947 90.2502C134.477 90.2476 135.955 89.6912 137.106 88.6838C137.901 87.9886 138.503 87.1113 138.868 86.136C139.032 85.6987 139.148 85.2417 139.212 84.7727C139.212 84.7717 139.212 84.7708 139.212 84.7699L137.783 84.5756C137.623 85.7464 137.046 86.82 136.156 87.598C135.267 88.3759 134.126 88.8056 132.945 88.8076C131.763 88.8096 130.621 88.3837 129.729 87.6087C128.837 86.8338 128.256 85.7621 128.092 84.5918C127.929 83.4215 128.195 82.2318 128.842 81.2425C129.488 80.2532 130.47 79.5313 131.607 79.2102C132.744 78.889 133.959 78.9904 135.027 79.4956C136.096 80.0008 136.945 80.8756 137.418 81.9583L138.74 81.3806Z" fill="black" fill-opacity="0.8"/>
</g>
<defs>
<clipPath id="clip0">
<rect width="60" height="60" fill="white" transform="translate(85 40)"/>
</clipPath>
</defs>
</svg>
