<svg width="80" height="80" viewBox="0 0 80 80" fill="none" xmlns="http://www.w3.org/2000/svg">
<circle cx="40" cy="40" r="39.5" stroke="black" stroke-opacity="0.1"/>
<path d="M53.036 20H26.964L20 31.142V60H60V31.142L53.036 20ZM58.1307 30.6667H40.6667V21.3333H52.2973L58.1307 30.6667ZM27.7027 21.3333H39.3333V30.6667H21.8693L27.7027 21.3333ZM21.3333 58.6667V32H58.6667V58.6667H21.3333Z" fill="#DEC377"/>
<path d="M44 35.3333H36C34.8973 35.3333 34 36.2306 34 37.3333C34 38.4359 34.8973 39.3333 36 39.3333H44C45.1027 39.3333 46 38.4359 46 37.3333C46 36.2306 45.1027 35.3333 44 35.3333ZM44 37.9999H36C35.6327 37.9999 35.3333 37.7013 35.3333 37.3333C35.3333 36.9653 35.6327 36.6666 36 36.6666H44C44.3673 36.6666 44.6667 36.9653 44.6667 37.3333C44.6667 37.7013 44.3673 37.9999 44 37.9999Z" fill="#DEC377"/>
<path d="M45.3333 54.6667H34.6667C34.2987 54.6667 34 54.9647 34 55.3334C34 55.7021 34.2987 56.0001 34.6667 56.0001H45.3333C45.7013 56.0001 46 55.7021 46 55.3334C46 54.9647 45.7013 54.6667 45.3333 54.6667Z" fill="#DEC377"/>
<path d="M36.6666 46.0008C37.0346 46.0008 37.3333 46.2988 37.3333 46.6674V51.0581L38.1953 50.1961C38.3253 50.0661 38.4959 50.0008 38.6666 50.0008C38.8373 50.0008 39.0079 50.0661 39.1379 50.1961C39.3986 50.4568 39.3986 50.8781 39.1379 51.1388L37.1386 53.1381C37.0773 53.2001 37.0033 53.2488 36.9213 53.2828C36.7586 53.3501 36.5746 53.3501 36.4119 53.2828C36.3299 53.2488 36.2566 53.2001 36.1946 53.1381L34.1953 51.1388C33.9346 50.8781 33.9346 50.4568 34.1953 50.1961C34.3253 50.0661 34.4959 50.0008 34.6666 50.0008C34.8373 50.0008 35.0079 50.0661 35.1379 50.1961L35.9999 51.0581V46.6674C35.9999 46.2988 36.2986 46.0008 36.6666 46.0008Z" fill="#DEC377"/>
<path d="M43.8053 53.1381C43.744 53.2001 43.67 53.2488 43.588 53.2828C43.4253 53.3501 43.2413 53.3501 43.0787 53.2828C42.9967 53.2488 42.9233 53.2001 42.8613 53.1381L40.862 51.1388C40.6013 50.8781 40.6013 50.4568 40.862 50.1961C40.992 50.0661 41.1627 50.0008 41.3333 50.0008C41.504 50.0008 41.6747 50.0661 41.8047 50.1961L42.6667 51.0581V46.6674C42.6667 46.2988 42.9653 46.0008 43.3333 46.0008C43.7013 46.0008 44 46.2988 44 46.6674V51.0581L44.862 50.1961C44.992 50.0661 45.1627 50.0008 45.3333 50.0008C45.504 50.0008 45.6747 50.0661 45.8047 50.1961C46.0653 50.4568 46.0653 50.8781 45.8047 51.1388L43.8053 53.1381Z" fill="#DEC377"/>
</svg>
