<svg width="80" height="80" viewBox="0 0 80 80" fill="none" xmlns="http://www.w3.org/2000/svg">
<circle cx="40" cy="40" r="39.5" stroke="black" stroke-opacity="0.1"/>
<g clip-path="url(#clip0)">
<path d="M53.4939 54.5999H50.1911C50.0159 54.5999 49.8479 54.5303 49.724 54.4064C49.6001 54.2825 49.5305 54.1145 49.5305 53.9393C49.5305 53.7641 49.6001 53.5961 49.724 53.4722C49.8479 53.3484 50.0159 53.2788 50.1911 53.2788H53.4939C54.895 53.2772 56.2382 52.7199 57.2289 51.7292C58.2196 50.7385 58.7769 49.3953 58.7785 47.9942V38.7463C58.7769 37.3452 58.2196 36.002 57.2289 35.0113C56.2382 34.0206 54.895 33.4633 53.4939 33.4618H50.1911C50.0159 33.4618 49.8479 33.3922 49.724 33.2683C49.6001 33.1444 49.5305 32.9764 49.5305 32.8012C49.5305 32.626 49.6001 32.458 49.724 32.3341C49.8479 32.2102 50.0159 32.1406 50.1911 32.1406H53.4939C55.2453 32.1425 56.9243 32.8391 58.1627 34.0775C59.4011 35.3159 60.0977 36.995 60.0996 38.7463V47.9942C60.0977 49.7456 59.4011 51.4246 58.1627 52.663C56.9243 53.9014 55.2453 54.598 53.4939 54.5999Z" fill="#DEC377"/>
<path d="M53.4939 50.6365H50.1911C50.0159 50.6365 49.8479 50.5669 49.724 50.443C49.6001 50.3191 49.5305 50.1511 49.5305 49.9759C49.5305 49.8007 49.6001 49.6327 49.724 49.5088C49.8479 49.3849 50.0159 49.3153 50.1911 49.3153H53.4939C53.8443 49.3153 54.1803 49.1762 54.4281 48.9284C54.6759 48.6806 54.8151 48.3446 54.8151 47.9942V38.7463C54.8151 38.3959 54.6759 38.0598 54.4281 37.8121C54.1803 37.5643 53.8443 37.4251 53.4939 37.4251H50.1911C50.0159 37.4251 49.8479 37.3555 49.724 37.2317C49.6001 37.1078 49.5305 36.9398 49.5305 36.7646C49.5305 36.5894 49.6001 36.4214 49.724 36.2975C49.8479 36.1736 50.0159 36.104 50.1911 36.104H53.4939C54.1947 36.104 54.8668 36.3824 55.3623 36.8779C55.8578 37.3734 56.1362 38.0455 56.1362 38.7463V47.9942C56.1362 48.695 55.8578 49.3671 55.3623 49.8626C54.8668 50.3581 54.1947 50.6365 53.4939 50.6365Z" fill="#DEC377"/>
<path d="M48.8698 57.2421H27.7317C27.2061 57.2421 26.7021 57.0333 26.3304 56.6617C25.9588 56.29 25.75 55.786 25.75 55.2604V31.48C25.75 30.9544 25.9588 30.4504 26.3304 30.0787C26.7021 29.7071 27.2061 29.4983 27.7317 29.4983H48.8698C49.3954 29.4983 49.8995 29.7071 50.2711 30.0787C50.6428 30.4504 50.8515 30.9544 50.8515 31.48V55.2604C50.8515 55.786 50.6428 56.29 50.2711 56.6617C49.8995 57.0333 49.3954 57.2421 48.8698 57.2421ZM27.7317 30.8194C27.5565 30.8194 27.3885 30.889 27.2646 31.0129C27.1407 31.1368 27.0711 31.3048 27.0711 31.48V55.2604C27.0711 55.4356 27.1407 55.6036 27.2646 55.7275C27.3885 55.8514 27.5565 55.921 27.7317 55.921H48.8698C49.045 55.921 49.213 55.8514 49.3369 55.7275C49.4608 55.6036 49.5304 55.4356 49.5304 55.2604V31.48C49.5304 31.3048 49.4608 31.1368 49.3369 31.0129C49.213 30.889 49.045 30.8194 48.8698 30.8194H27.7317Z" fill="#DEC377"/>
<path d="M33.0161 28.1771C32.8855 28.1771 32.7578 28.1383 32.6492 28.0657C32.5406 27.9932 32.456 27.89 32.406 27.7693C32.356 27.6486 32.3429 27.5158 32.3684 27.3877C32.3939 27.2596 32.4567 27.1419 32.5491 27.0495C32.7263 26.9071 32.8693 26.7268 32.9676 26.5218C33.0658 26.3169 33.1168 26.0924 33.1168 25.8651C33.1168 25.6378 33.0658 25.4134 32.9676 25.2084C32.8693 25.0034 32.7263 24.8231 32.5491 24.6807C32.2508 24.4143 32.0121 24.0878 31.8487 23.7228C31.6853 23.3577 31.6008 22.9623 31.6008 22.5623C31.6008 22.1623 31.6853 21.7669 31.8487 21.4018C32.0121 21.0367 32.2508 20.7103 32.5491 20.4439C32.61 20.3808 32.6829 20.3304 32.7635 20.2958C32.8441 20.2612 32.9308 20.243 33.0185 20.2422C33.1062 20.2415 33.1932 20.2582 33.2744 20.2914C33.3556 20.3246 33.4293 20.3736 33.4913 20.4357C33.5533 20.4977 33.6024 20.5714 33.6356 20.6526C33.6688 20.7338 33.6855 20.8208 33.6848 20.9085C33.684 20.9962 33.6658 21.0829 33.6312 21.1635C33.5966 21.2441 33.5462 21.317 33.4831 21.3779C33.3059 21.5203 33.1629 21.7006 33.0647 21.9056C32.9664 22.1106 32.9154 22.335 32.9154 22.5623C32.9154 22.7896 32.9664 23.014 33.0647 23.219C33.1629 23.424 33.3059 23.6043 33.4831 23.7467C33.7814 24.0131 34.0201 24.3396 34.1835 24.7046C34.3469 25.0697 34.4314 25.4652 34.4314 25.8651C34.4314 26.2651 34.3469 26.6606 34.1835 27.0256C34.0201 27.3907 33.7814 27.7171 33.4831 27.9836C33.3593 28.1074 33.1913 28.1771 33.0161 28.1771Z" fill="#DEC377"/>
<path d="M38.3008 28.1771C38.1702 28.1771 38.0425 28.1383 37.9339 28.0657C37.8253 27.9932 37.7406 27.89 37.6906 27.7693C37.6407 27.6486 37.6276 27.5158 37.653 27.3877C37.6785 27.2596 37.7414 27.1419 37.8338 27.0495C38.011 26.9071 38.154 26.7268 38.2522 26.5218C38.3505 26.3169 38.4015 26.0924 38.4015 25.8651C38.4015 25.6378 38.3505 25.4134 38.2522 25.2084C38.154 25.0034 38.011 24.8231 37.8338 24.6807C37.5355 24.4143 37.2968 24.0878 37.1334 23.7228C36.97 23.3577 36.8855 22.9623 36.8855 22.5623C36.8855 22.1623 36.97 21.7669 37.1334 21.4018C37.2968 21.0367 37.5355 20.7103 37.8338 20.4439C37.8947 20.3808 37.9676 20.3304 38.0482 20.2958C38.1288 20.2612 38.2155 20.243 38.3032 20.2422C38.3909 20.2415 38.4779 20.2582 38.559 20.2914C38.6402 20.3246 38.714 20.3736 38.776 20.4357C38.838 20.4977 38.8871 20.5714 38.9203 20.6526C38.9535 20.7338 38.9702 20.8208 38.9694 20.9085C38.9687 20.9962 38.9505 21.0829 38.9158 21.1635C38.8812 21.2441 38.8309 21.317 38.7678 21.3779C38.5906 21.5203 38.4476 21.7006 38.3493 21.9056C38.2511 22.1106 38.2001 22.335 38.2001 22.5623C38.2001 22.7896 38.2511 23.014 38.3493 23.219C38.4476 23.424 38.5906 23.6043 38.7678 23.7467C39.0661 24.0131 39.3048 24.3396 39.4682 24.7046C39.6316 25.0697 39.7161 25.4652 39.7161 25.8651C39.7161 26.2651 39.6316 26.6606 39.4682 27.0256C39.3048 27.3907 39.0661 27.7171 38.7678 27.9836C38.644 28.1074 38.476 28.1771 38.3008 28.1771Z" fill="#DEC377"/>
<path d="M43.5852 28.1771C43.4546 28.1771 43.3269 28.1383 43.2183 28.0657C43.1097 27.9932 43.025 27.89 42.9751 27.7693C42.9251 27.6486 42.912 27.5158 42.9375 27.3877C42.9629 27.2596 43.0258 27.1419 43.1182 27.0495C43.2954 26.9071 43.4384 26.7268 43.5367 26.5218C43.6349 26.3169 43.6859 26.0924 43.6859 25.8651C43.6859 25.6378 43.6349 25.4134 43.5367 25.2084C43.4384 25.0034 43.2954 24.8231 43.1182 24.6807C42.8199 24.4143 42.5812 24.0878 42.4178 23.7228C42.2544 23.3577 42.1699 22.9623 42.1699 22.5623C42.1699 22.1623 42.2544 21.7669 42.4178 21.4018C42.5812 21.0367 42.8199 20.7103 43.1182 20.4439C43.1791 20.3808 43.252 20.3304 43.3326 20.2958C43.4132 20.2612 43.4999 20.243 43.5876 20.2422C43.6753 20.2415 43.7623 20.2582 43.8435 20.2914C43.9246 20.3246 43.9984 20.3736 44.0604 20.4357C44.1224 20.4977 44.1715 20.5714 44.2047 20.6526C44.2379 20.7338 44.2546 20.8208 44.2539 20.9085C44.2531 20.9962 44.2349 21.0829 44.2003 21.1635C44.1656 21.2441 44.1153 21.317 44.0522 21.3779C43.875 21.5203 43.732 21.7006 43.6338 21.9056C43.5355 22.1106 43.4845 22.335 43.4845 22.5623C43.4845 22.7896 43.5355 23.014 43.6338 23.219C43.732 23.424 43.875 23.6043 44.0522 23.7467C44.3505 24.0131 44.5892 24.3396 44.7526 24.7046C44.916 25.0697 45.0005 25.4652 45.0005 25.8651C45.0005 26.2651 44.916 26.6606 44.7526 27.0256C44.5892 27.3907 44.3505 27.7171 44.0522 27.9836C43.9284 28.1074 43.7604 28.1771 43.5852 28.1771Z" fill="#DEC377"/>
</g>
<defs>
<clipPath id="clip0">
<rect width="40" height="40" fill="white" transform="translate(20 20)"/>
</clipPath>
</defs>
</svg>
