<svg width="80" height="80" viewBox="0 0 80 80" fill="none" xmlns="http://www.w3.org/2000/svg">
<circle cx="40" cy="40" r="39.5" stroke="black" stroke-opacity="0.1"/>
<path d="M55.3333 47.3793V39.3333H40.6667V32.6207C43.2933 32.2907 45.3333 30.048 45.3333 27.3333C45.3333 24.3927 42.9407 22 40 22C37.0593 22 34.6667 24.3927 34.6667 27.3333C34.6667 30.048 36.7067 32.2907 39.3333 32.6207V39.3333H24.6667V47.3793C22.04 47.7093 20 49.952 20 52.6667C20 55.6073 22.3927 58 25.3333 58C28.274 58 30.6667 55.6073 30.6667 52.6667C30.6667 49.952 28.6267 47.7093 26 47.3793V40.6667H39.3333V47.3793C36.7067 47.7093 34.6667 49.952 34.6667 52.6667C34.6667 55.6073 37.0593 58 40 58C42.9407 58 45.3333 55.6073 45.3333 52.6667C45.3333 49.952 43.2933 47.7093 40.6667 47.3793V40.6667H54V47.3793C51.3733 47.7093 49.3333 49.952 49.3333 52.6667C49.3333 55.6073 51.726 58 54.6667 58C57.6073 58 60 55.6073 60 52.6667C60 49.952 57.96 47.7093 55.3333 47.3793ZM36 27.3333C36 25.1273 37.794 23.3333 40 23.3333C42.206 23.3333 44 25.1273 44 27.3333C44 29.5393 42.206 31.3333 40 31.3333C37.794 31.3333 36 29.5393 36 27.3333ZM29.3333 52.6667C29.3333 54.8727 27.5393 56.6667 25.3333 56.6667C23.1273 56.6667 21.3333 54.8727 21.3333 52.6667C21.3333 50.4607 23.1273 48.6667 25.3333 48.6667C27.5393 48.6667 29.3333 50.4607 29.3333 52.6667ZM44 52.6667C44 54.8727 42.206 56.6667 40 56.6667C37.794 56.6667 36 54.8727 36 52.6667C36 50.4607 37.794 48.6667 40 48.6667C42.206 48.6667 44 50.4607 44 52.6667ZM54.6667 56.6667C52.4607 56.6667 50.6667 54.8727 50.6667 52.6667C50.6667 50.4607 52.4607 48.6667 54.6667 48.6667C56.8727 48.6667 58.6667 50.4607 58.6667 52.6667C58.6667 54.8727 56.8727 56.6667 54.6667 56.6667Z" fill="#DEC377"/>
</svg>
