<svg width="230" height="130" viewBox="0 0 230 130" fill="none" xmlns="http://www.w3.org/2000/svg">
<circle cx="115" cy="70" r="58.5" stroke="black" stroke-opacity="0.1" stroke-width="3"/>
<path d="M125.547 82.0924C129.978 82.0924 133.578 78.4924 133.578 73.9693C133.578 72.2155 134.316 70.4616 135.516 69.2616C138.654 66.1231 138.654 60.9539 135.516 57.8155C134.224 56.5231 133.578 54.8616 133.578 53.1078C133.578 48.677 129.978 44.9847 125.454 44.9847C123.701 44.9847 121.947 44.2462 120.747 43.0462C117.608 39.9078 112.439 39.9078 109.301 43.0462C108.008 44.3385 106.347 44.9847 104.593 44.9847C100.162 44.9847 96.4698 48.5847 96.4698 53.1078C96.4698 54.8616 95.7313 56.6155 94.5313 57.8155C92.9621 59.3847 92.1313 61.3232 92.1313 63.5385C92.1313 65.6616 92.9621 67.6924 94.5313 69.2616C95.8237 70.5539 96.4698 72.2155 96.4698 73.9693C96.4698 78.4001 100.07 82.0924 104.593 82.0924C106.347 82.0924 108.101 82.8308 109.301 84.0308C110.87 85.6001 112.901 86.4308 115.024 86.4308C117.054 86.4308 119.178 85.6001 120.747 84.0308C122.131 82.7385 123.793 82.0924 125.547 82.0924ZM110.408 83.0155C108.839 81.4462 106.808 80.6155 104.685 80.6155C100.993 80.6155 97.9467 77.5693 97.9467 73.877C97.9467 71.7539 97.116 69.7232 95.5467 68.1539C94.2544 66.8616 93.6083 65.2001 93.6083 63.4462C93.6083 61.6924 94.3467 59.9385 95.5467 58.7385C97.116 57.1693 97.9467 55.1385 97.9467 53.0155C97.9467 49.3232 100.993 46.277 104.685 46.277C106.808 46.277 108.839 45.4462 110.408 43.877C111.701 42.7693 113.362 42.1232 115.116 42.1232C116.87 42.1232 118.531 42.7693 119.824 44.0616C121.393 45.5385 123.424 46.3693 125.547 46.3693C129.239 46.3693 132.193 49.4155 132.193 53.1078C132.193 55.2308 133.024 57.2616 134.593 58.8308C137.178 61.4155 137.178 65.6616 134.593 68.3385C133.024 69.9078 132.193 71.9385 132.193 74.0616C132.193 77.7539 129.147 80.8001 125.454 80.8001C123.331 80.8001 121.301 81.6308 119.731 83.2001C117.239 85.6924 112.993 85.6924 110.408 83.0155Z" fill="black" fill-opacity="0.8"/>
<path d="M131.455 63.5384C131.455 63.1692 131.178 62.8 130.716 62.8C130.347 62.8 129.978 63.0769 129.978 63.5384C129.978 71.7538 123.239 78.4923 114.931 78.5846C106.716 78.5846 99.9776 71.8461 99.8853 63.5384C99.8853 61.2307 100.347 59.1076 101.362 57.0769C104.039 51.9076 109.393 48.5846 115.116 48.5846C121.393 48.5846 127.116 52.5538 129.239 58.5538C129.331 58.923 129.793 59.1076 130.162 59.0153C130.347 58.923 130.439 58.8307 130.531 58.6461C130.624 58.4615 130.624 58.2769 130.531 58.0923C128.224 51.6307 122.039 47.2 115.116 47.2C111.978 47.2 108.931 48.123 106.255 49.7846C103.67 51.4461 101.639 53.7538 100.347 56.523C99.3314 58.7384 98.7776 61.1384 98.7776 63.6307C98.7776 72.6769 106.162 80.0615 115.208 80.0615C124.255 80.0615 131.455 72.5846 131.455 63.5384Z" fill="black" fill-opacity="0.8"/>
<path d="M126.285 59.9386C126.193 59.6617 126.008 59.4771 125.731 59.4771L118.808 58.4617L115.762 52.1848C115.485 51.7232 114.747 51.7232 114.562 52.1848L111.424 58.4617L104.593 59.4771C104.316 59.4771 104.131 59.6617 104.039 59.9386C103.947 60.2155 104.039 60.4925 104.224 60.6771L109.208 65.5694L107.916 72.3078C107.916 72.5848 108.008 72.8617 108.193 72.954C108.377 73.1386 108.654 73.1386 108.931 73.0463L115.116 69.8155L121.3 73.0463C121.393 73.1386 121.485 73.1386 121.577 73.1386C121.762 73.1386 121.854 73.1386 121.947 73.0463C122.131 72.8617 122.224 72.5848 122.224 72.4002L121.024 65.5694L126.008 60.6771C126.285 60.4925 126.285 60.2155 126.285 59.9386ZM119.824 64.7386C119.639 64.9232 119.547 65.1079 119.639 65.3848L120.654 71.2002L115.393 68.4309C115.3 68.3386 115.208 68.3386 115.116 68.3386C115.024 68.3386 114.931 68.3386 114.839 68.4309L109.577 71.2002L110.593 65.3848C110.593 65.2002 110.593 64.9232 110.408 64.7386L106.162 60.5848L111.977 59.754C112.162 59.754 112.439 59.5694 112.531 59.3848L115.116 54.1232L117.7 59.3848C117.793 59.5694 117.977 59.754 118.254 59.754L124.07 60.5848L119.824 64.7386Z" fill="black" fill-opacity="0.8"/>
<path d="M110.501 87.6308C110.131 87.4462 109.762 87.6308 109.577 88.0001L105.424 96.8616L102.839 89.6616C102.747 89.477 102.654 89.3847 102.47 89.2924C102.285 89.2001 102.101 89.2001 101.916 89.2924L94.7159 91.877L98.6851 83.2924C98.8698 82.9231 98.6851 82.5539 98.3159 82.3693C97.9467 82.1847 97.5775 82.3693 97.3928 82.7385L92.6851 92.8924C92.5928 93.1693 92.5928 93.4462 92.7775 93.6308C92.9621 93.8155 93.239 93.9078 93.5159 93.8155L101.639 90.8616L104.593 98.9847C104.685 99.2616 104.962 99.4462 105.239 99.4462C105.516 99.4462 105.793 99.2616 105.885 99.077L110.685 88.7385C111.054 88.1847 110.87 87.8155 110.501 87.6308Z" fill="black" fill-opacity="0.8"/>
<path d="M135.977 93.5386C136.162 93.3539 136.254 93.077 136.07 92.8001L131.639 83.3847C131.454 83.0155 131.085 82.9232 130.716 83.0155C130.347 83.2001 130.254 83.5693 130.347 83.9385L134.039 91.877L126.839 89.2924C126.654 89.2001 126.47 89.2001 126.285 89.2924C126.1 89.3847 126.008 89.477 125.916 89.6616L123.423 96.7693L119.547 88.3693C119.362 88.0001 118.993 87.9078 118.623 88.0001C118.254 88.1847 118.162 88.5539 118.254 88.9232L122.87 98.8001C122.962 99.077 123.239 99.1693 123.516 99.1693C123.793 99.1693 124.07 98.9847 124.162 98.7078L127.116 90.5847L135.239 93.5386C135.516 93.8155 135.793 93.7232 135.977 93.5386Z" fill="black" fill-opacity="0.8"/>
</svg>
