<svg width="230" height="130" viewBox="0 0 230 130" fill="none" xmlns="http://www.w3.org/2000/svg">
<circle cx="115" cy="70" r="58.5" stroke="black" stroke-opacity="0.1" stroke-width="3"/>
<path d="M115 65.1078C115.369 65.1078 115.738 64.8309 115.738 64.3693C115.738 63.9078 115.461 63.6309 115 63.6309C111.584 63.6309 108.723 66.4001 108.723 69.9078C108.723 73.4155 111.492 76.1847 115 76.1847C118.508 76.1847 121.277 73.4155 121.277 69.9078C121.277 69.5386 121 69.1693 120.538 69.1693C120.077 69.1693 119.8 69.4462 119.8 69.9078C119.8 72.5847 117.584 74.8001 114.908 74.8001C112.231 74.8001 110.015 72.5847 110.015 69.9078C110.015 67.2309 112.323 65.1078 115 65.1078Z" fill="black" fill-opacity="0.8"/>
<path d="M134.661 54.5848C134.385 54.7694 134.292 55.2309 134.477 55.5079C137.615 59.6617 139.185 64.6463 139.185 69.9079C139.185 83.3848 128.385 94.1848 115 94.1848C101.615 94.1848 90.723 83.3848 90.723 70.0002C90.723 56.6155 101.615 45.7232 115 45.7232C120.261 45.7232 125.246 47.3848 129.4 50.4309C129.677 50.6155 130.138 50.6155 130.323 50.2463C130.508 49.9694 130.508 49.5079 130.138 49.3232C125.708 46.0002 120.446 44.3386 114.908 44.3386C100.877 44.3386 89.3384 55.8771 89.3384 70.0002C89.3384 84.1232 100.785 95.6617 115 95.6617C129.215 95.6617 140.661 84.2155 140.661 70.0002C140.661 64.4617 138.908 59.2002 135.677 54.7694C135.4 54.4925 134.938 54.4002 134.661 54.5848Z" fill="black" fill-opacity="0.8"/>
<path d="M125.8 54.9539C125.985 54.677 125.892 54.2154 125.615 54.0308C122.477 51.9077 118.877 50.8923 115.092 50.8923C104.569 50.8923 95.8923 59.477 95.8923 70.0923C95.8923 80.7077 104.477 89.2923 115.092 89.2923C125.708 89.2923 134.292 80.7077 134.292 70.0923C134.292 66.3077 133.185 62.7077 131.154 59.5693C130.969 59.2923 130.508 59.2 130.231 59.3846C129.954 59.5693 129.862 60.0308 130.046 60.3077C131.985 63.1693 133 66.5846 133 70.0923C133 79.877 125.062 87.9077 115.185 87.9077C105.308 87.9077 97.3693 79.9693 97.3693 70.0923C97.3693 60.2154 105.308 52.2769 115.185 52.2769C118.692 52.2769 122.108 53.2923 124.969 55.2308C125.154 55.4154 125.523 55.3231 125.8 54.9539Z" fill="black" fill-opacity="0.8"/>
<path d="M121.092 59.6617C121.277 59.2925 121.092 58.9232 120.815 58.7386C119.061 57.8155 117.031 57.354 115 57.354C107.985 57.354 102.261 63.0771 102.261 70.0925C102.261 77.1078 107.985 82.8309 115 82.8309C122.015 82.8309 127.738 77.1078 127.738 70.0925C127.738 68.0617 127.277 66.1232 126.354 64.2771C126.169 63.9078 125.8 63.8155 125.431 64.0002C125.061 64.1848 124.969 64.554 125.154 64.9232C125.985 66.4925 126.354 68.2463 126.354 70.0925C126.354 76.3694 121.277 81.4463 115 81.4463C108.723 81.4463 103.646 76.3694 103.646 70.0925C103.646 63.8155 108.723 58.7386 115 58.7386C116.846 58.7386 118.508 59.2002 120.169 59.9386C120.446 60.1232 120.908 59.9386 121.092 59.6617Z" fill="black" fill-opacity="0.8"/>
<path d="M141.77 48.1232H137.893L141.308 44.6155C141.585 44.3386 141.585 43.877 141.308 43.6001C141.031 43.3232 140.662 43.4155 140.385 43.6924L136.97 47.1078V43.2309C136.97 42.8617 136.693 42.4924 136.231 42.4924C135.77 42.4924 135.493 42.7694 135.493 43.2309V48.4924L114.539 69.5386C114.262 69.8155 114.262 70.277 114.539 70.554C114.631 70.6463 114.816 70.7386 115 70.7386C115.185 70.7386 115.37 70.6463 115.462 70.554L136.508 49.5078H141.77C142.139 49.5078 142.508 49.2309 142.508 48.7694C142.508 48.3078 142.139 48.1232 141.77 48.1232Z" fill="black" fill-opacity="0.8"/>
</svg>
