<svg width="80" height="80" viewBox="0 0 80 80" fill="none" xmlns="http://www.w3.org/2000/svg">
<circle cx="40" cy="40" r="39.5" stroke="black" stroke-opacity="0.1"/>
<g clip-path="url(#clip0)">
<path d="M59.4727 20.1953C59.212 19.9346 58.7906 19.9346 58.5299 20.1953L56.0578 22.6667H40.5357L21.0214 42.3417C20.5767 42.7857 20.332 43.3771 20.332 44.0051C20.332 44.6332 20.5767 45.2245 21.0214 45.6685L34.6661 59.3132C35.1241 59.7712 35.7248 59.9999 36.3268 59.9999C36.9309 59.9999 37.5362 59.7692 37.9989 59.3066L57.0005 39.7916V23.6094L59.472 21.138C59.7327 20.8773 59.7327 20.4559 59.4727 20.1953ZM55.6678 39.2502L37.0502 58.3705C36.6535 58.7679 36.0068 58.7679 35.6088 58.3705L21.9641 44.7258C21.7714 44.5331 21.6654 44.2771 21.6654 44.0051C21.6654 43.7331 21.7714 43.4771 21.9661 43.2824L41.0911 24.0001H54.7251L51.5029 27.2223C50.9756 26.8729 50.3455 26.6669 49.6675 26.6669C47.8294 26.6669 46.334 28.1623 46.334 30.0004C46.334 31.8385 47.8294 33.3339 49.6675 33.3339C51.5056 33.3339 53.001 31.8385 53.001 30.0004C53.001 29.3224 52.795 28.6924 52.4456 28.165L55.6678 24.9428V39.2502ZM51.6676 30.0004C51.6676 31.1031 50.7702 32.0005 49.6675 32.0005C48.5648 32.0005 47.6674 31.1031 47.6674 30.0004C47.6674 28.8977 48.5648 28.0003 49.6675 28.0003C49.9755 28.0003 50.2635 28.0763 50.5242 28.201L49.1961 29.5291C48.9355 29.7897 48.9355 30.2111 49.1961 30.4718C49.3261 30.6018 49.4968 30.6671 49.6675 30.6671C49.8382 30.6671 50.0088 30.6018 50.1389 30.4718L51.4669 29.1437C51.5916 29.4044 51.6676 29.6924 51.6676 30.0004Z" fill="#DEC377"/>
<path d="M46.9426 34.0881C47.2033 33.8274 47.2033 33.4061 46.9426 33.1454C46.6819 32.8847 46.2606 32.8847 45.9999 33.1454L45.5025 33.6428C44.3111 32.6894 42.799 32.2207 41.2556 32.3514C40.1802 32.4414 39.2069 32.9607 38.5148 33.8134C37.8028 34.6915 37.4741 35.8395 37.6148 36.9629L38.1221 41.0231L32.1572 46.9881C30.7904 45.1613 30.9318 42.5565 32.5905 40.8971C32.8512 40.6364 32.8512 40.2151 32.5905 39.9544C32.3299 39.6937 31.9085 39.6937 31.6478 39.9544C29.4677 42.1345 29.321 45.5873 31.2045 47.9408L30.4431 48.7022C30.1824 48.9628 30.1824 49.3842 30.4431 49.6449C30.5731 49.7749 30.7438 49.8402 30.9145 49.8402C31.0851 49.8402 31.2558 49.7749 31.3858 49.6449L32.1478 48.8828C33.2099 49.7316 34.5253 50.1976 35.8887 50.1976C36.056 50.1976 36.2241 50.1902 36.3927 50.1762C37.4681 50.0869 38.4415 49.5682 39.1335 48.7148C39.8462 47.8368 40.1749 46.6881 40.0342 45.5647L39.5269 41.5045L45.4918 35.5395C46.8579 37.3663 46.7172 39.9717 45.0578 41.6311C44.7971 41.8918 44.7971 42.3132 45.0578 42.5739C45.3185 42.8345 45.7399 42.8345 46.0005 42.5739C48.1806 40.3931 48.3267 36.9402 46.4439 34.5868L46.9426 34.0881ZM38.7095 45.7307C38.8055 46.4954 38.5822 47.2768 38.0968 47.8755C37.6355 48.4442 36.9908 48.7895 36.2807 48.8488C35.1353 48.9388 34.0086 48.6095 33.0999 47.9315L38.3308 42.6999L38.7095 45.7307ZM38.9369 36.7976C38.8408 36.0335 39.0642 35.2515 39.5489 34.6535C40.0102 34.0848 40.6556 33.7394 41.3656 33.6794C42.511 33.5854 43.6384 33.9181 44.5471 34.5968L39.3155 39.8284L38.9369 36.7976Z" fill="#DEC377"/>
</g>
<defs>
<clipPath id="clip0">
<rect width="40" height="40" fill="white" transform="translate(20 20)"/>
</clipPath>
</defs>
</svg>
