<svg width="80" height="80" viewBox="0 0 80 80" fill="none" xmlns="http://www.w3.org/2000/svg">
<circle cx="40" cy="40" r="39.5" stroke="black" stroke-opacity="0.1"/>
<g clip-path="url(#clip0)">
<path d="M56.41 45.9996H46.0003V41.9995H43.3336V37.838C43.3336 36.4127 43.9482 35.0739 44.9776 34.2553C46.899 32.7292 48.0004 30.4485 48.0004 27.999C48.0004 25.7216 47.025 23.5456 45.325 22.0288C43.6262 20.5128 41.3415 19.7908 39.0621 20.0528C35.4933 20.4588 32.5545 23.3342 32.0745 26.889C31.6945 29.7051 32.7792 32.4445 34.9766 34.2179C36.0346 35.0719 36.6667 36.4713 36.6667 37.96V41.9995H33.9999V45.9996H23.5902C22.7135 45.9996 21.9995 46.713 21.9995 47.5904V55.0766C21.9995 55.9533 22.7129 56.6673 23.5902 56.6673H24.0602C24.3789 58.5561 26.0216 60.0008 28.0004 60.0008H52.0012C53.9792 60.0008 55.622 58.5561 55.9413 56.6673H56.4113C57.288 56.6673 58.002 55.954 58.002 55.0766V47.5904C58.0007 46.7137 57.2873 45.9996 56.41 45.9996ZM35.814 33.1805C33.9826 31.7025 33.0785 29.4171 33.3966 27.0677C33.7966 24.1089 36.2433 21.7168 39.2141 21.3775C41.1468 21.1601 43.0015 21.7422 44.4376 23.0242C45.855 24.2883 46.6677 26.1016 46.6677 27.9997C46.6677 30.0404 45.7496 31.9398 44.1489 33.2119C42.7835 34.2973 42.0008 35.9833 42.0008 37.838V41.9995H38.0007V37.9607C38 36.0446 37.2033 34.3019 35.814 33.1805ZM35.3333 43.3329H36.6667H43.3336H44.6669V45.9996H35.3333V43.3329ZM52.0005 58.6667H27.9997C26.7597 58.6667 25.7136 57.816 25.4176 56.6667H54.5826C54.2866 57.816 53.2412 58.6667 52.0005 58.6667ZM56.6673 55.0766C56.6673 55.2186 56.552 55.334 56.41 55.334H56.0006H23.9996H23.5902C23.4482 55.334 23.3329 55.2186 23.3329 55.0766V47.5904C23.3329 47.4484 23.4482 47.333 23.5902 47.333H33.9999H46.0003H56.41C56.552 47.333 56.6673 47.4484 56.6673 47.5904V55.0766Z" fill="#DEC377"/>
</g>
<defs>
<clipPath id="clip0">
<rect width="40" height="40" fill="white" transform="translate(20 20)"/>
</clipPath>
</defs>
</svg>
