<svg width="230" height="130" viewBox="0 0 230 130" fill="none" xmlns="http://www.w3.org/2000/svg">
<circle cx="115" cy="70" r="58.5" stroke="black" stroke-opacity="0.1" stroke-width="3"/>
<path d="M132.539 73.969H132.077C132.816 72.6767 133.277 71.1075 133.277 70.0921C133.277 67.6921 131.246 65.6613 128.846 65.6613C126.446 65.6613 124.416 67.6921 124.416 70.0921C124.416 71.1075 124.877 72.6767 125.616 73.969H125.154C124.231 73.969 123.4 74.246 122.662 74.7075C122.016 73.1383 120.446 72.1229 118.693 72.1229H118.231C118.969 70.8306 119.431 69.2613 119.431 68.246C119.431 65.846 117.4 63.8152 115 63.8152C112.6 63.8152 110.569 65.846 110.569 68.246C110.569 69.2613 111.031 70.8306 111.769 72.1229H111.308C109.554 72.1229 107.985 73.2306 107.339 74.7075C106.6 74.246 105.769 73.969 104.846 73.969H104.385C105.123 72.6767 105.585 71.1075 105.585 70.0921C105.585 67.6921 103.554 65.6613 101.154 65.6613C98.7541 65.6613 96.7233 67.6921 96.7233 70.0921C96.7233 71.1075 97.1849 72.6767 97.9233 73.969H97.4618C95.0618 73.969 93.031 75.9075 93.031 78.3998V88.5536C93.031 88.9229 93.3079 89.2921 93.7695 89.2921H96.7233V98.7998C96.7233 99.169 97.0002 99.5383 97.4618 99.5383H104.939C105.308 99.5383 105.677 99.2613 105.677 98.7998V80.3383C105.677 79.969 105.4 79.5998 104.939 79.5998C104.477 79.5998 104.2 79.8767 104.2 80.3383V98.1536H101.8V86.6152C101.8 86.246 101.523 85.8767 101.062 85.8767C100.6 85.8767 100.323 86.1536 100.323 86.6152V97.969H97.9233V80.1536C97.9233 79.7844 97.6464 79.4152 97.1849 79.4152C96.7233 79.4152 96.4464 79.6921 96.4464 80.1536V87.8152H94.231V78.3075C94.231 76.646 95.6156 75.2613 97.2772 75.2613H98.7541C99.4002 75.9075 100.139 76.2767 100.969 76.2767C101.8 76.2767 102.539 75.9075 103.185 75.2613H104.662C105.493 75.2613 106.231 75.6306 106.785 76.1844C106.785 76.2767 106.785 76.369 106.785 76.4613V85.6921C106.785 86.0613 107.062 86.4306 107.523 86.4306H110.477V97.7844C110.477 98.1536 110.754 98.5229 111.216 98.5229H118.693C119.062 98.5229 119.431 98.246 119.431 97.7844V86.4306H122.385C122.754 86.4306 123.123 86.1536 123.123 85.6921V76.4613C123.123 76.369 123.123 76.2767 123.123 76.1844C123.677 75.6306 124.416 75.2613 125.246 75.2613H126.723C127.369 75.9075 128.108 76.2767 128.939 76.2767C129.769 76.2767 130.508 75.9075 131.154 75.2613H132.631C134.293 75.2613 135.677 76.646 135.677 78.3075V87.8152H133.462V80.1536C133.462 79.7844 133.185 79.4152 132.723 79.4152C132.262 79.4152 131.985 79.6921 131.985 80.1536V97.969H129.585V86.6152C129.585 86.246 129.308 85.8767 128.846 85.8767C128.385 85.8767 128.108 86.1536 128.108 86.6152V97.969H125.708V80.1536C125.708 79.7844 125.431 79.4152 124.969 79.4152C124.508 79.4152 124.231 79.6921 124.231 80.1536V98.6152C124.231 98.9844 124.508 99.3536 124.969 99.3536H132.446C132.816 99.3536 133.185 99.0767 133.185 98.6152V89.1998H136.139C136.508 89.1998 136.877 88.9229 136.877 88.4613V78.3075C136.969 75.9075 134.939 73.969 132.539 73.969ZM101.154 67.046C102.816 67.046 104.2 68.4306 104.2 70.0921C104.2 71.2921 103.462 73.1383 102.539 74.1536C102.262 74.4306 101.985 74.7075 101.616 74.8921C101.616 74.8921 101.616 74.8921 101.523 74.8921C101.431 74.8921 101.246 74.9844 101.154 74.9844C101.062 74.9844 100.877 74.9844 100.785 74.8921C100.785 74.8921 100.785 74.8921 100.693 74.8921C100.323 74.7075 99.9541 74.4306 99.7695 74.1536C98.8464 73.1383 98.1079 71.2921 98.1079 70.0921C98.1079 68.3383 99.4925 67.046 101.154 67.046ZM115 65.1998C116.662 65.1998 118.046 66.5844 118.046 68.246C118.046 69.446 117.308 71.2921 116.385 72.3075C116.108 72.5844 115.831 72.8613 115.462 73.046C115.462 73.046 115.462 73.046 115.369 73.046C115.277 73.046 115.093 73.1383 115 73.1383C114.908 73.1383 114.723 73.1383 114.631 73.046C114.631 73.046 114.631 73.046 114.539 73.046C114.169 72.8613 113.8 72.5844 113.616 72.3075C112.693 71.2921 111.954 69.446 111.954 68.246C111.954 66.4921 113.339 65.1998 115 65.1998ZM121.739 85.046H119.523V80.1536C119.523 79.7844 119.246 79.4152 118.785 79.4152C118.323 79.4152 118.046 79.6921 118.046 80.1536V97.046H115.646V84.769C115.646 84.3998 115.369 84.0306 114.908 84.0306C114.446 84.0306 114.169 84.3075 114.169 84.769V97.046H111.769V80.1536C111.769 79.7844 111.493 79.4152 111.031 79.4152C110.569 79.4152 110.293 79.6921 110.293 80.1536V85.046H108.077V76.4613C108.077 74.7998 109.462 73.4152 111.123 73.4152H112.6C113.246 74.0613 113.985 74.4306 114.816 74.4306C115.646 74.4306 116.385 74.0613 117.031 73.4152H118.508C120.169 73.4152 121.554 74.7998 121.554 76.4613V85.046H121.739ZM128.846 67.046C130.508 67.046 131.893 68.4306 131.893 70.0921C131.893 71.2921 131.154 73.1383 130.231 74.1536C129.954 74.4306 129.677 74.7075 129.308 74.8921C129.308 74.8921 129.308 74.8921 129.216 74.8921C129.123 74.8921 128.939 74.9844 128.846 74.9844C128.754 74.9844 128.569 74.9844 128.477 74.8921C128.477 74.8921 128.477 74.8921 128.385 74.8921C128.016 74.7075 127.646 74.4306 127.462 74.1536C126.539 73.1383 125.8 71.2921 125.8 70.0921C125.8 68.3383 127.185 67.046 128.846 67.046Z" fill="black" fill-opacity="0.8"/>
<path d="M139.277 74.4306C140.108 71.846 140.569 69.0768 140.569 66.3075C140.569 52.1845 129.123 40.646 114.908 40.646C100.692 40.646 89.4309 52.1845 89.4309 66.3075C89.4309 69.0768 89.8924 71.7537 90.7232 74.4306C90.8155 74.7075 91.0924 74.8921 91.3694 74.8921C91.4617 74.8921 91.554 74.8921 91.554 74.8921C91.9232 74.7998 92.1078 74.3383 92.0155 74.0614C91.1848 71.5691 90.8155 68.9845 90.8155 66.3998C90.8155 62.3383 91.8309 58.4614 93.5848 55.046H102.446C101.8 57.3537 101.431 59.9383 101.154 62.6152C101.154 62.9845 101.431 63.3537 101.8 63.3537C102.169 63.3537 102.539 63.0768 102.539 62.7075C102.723 59.9383 103.185 57.3537 103.923 54.9537H114.354V60.7691C114.354 61.1383 114.631 61.5075 115.092 61.5075C115.554 61.5075 115.831 61.2306 115.831 60.7691V54.9537H126.262C126.908 57.3537 127.369 59.9383 127.646 62.7075C127.646 63.0768 128.016 63.3537 128.292 63.3537C128.292 63.3537 128.292 63.3537 128.385 63.3537C128.754 63.3537 129.031 62.9845 129.031 62.6152C128.846 59.9383 128.385 57.3537 127.739 55.046H136.6C138.354 58.4614 139.369 62.246 139.369 66.3998C139.369 68.9845 138.908 71.5691 138.169 74.0614C138.077 74.4306 138.262 74.7998 138.631 74.8921C138.816 74.9845 139.185 74.7998 139.277 74.4306ZM94.4155 53.6614C97.7386 48.2152 103.185 44.246 109.554 42.7691C106.692 44.9845 104.385 48.7691 102.908 53.6614H94.4155ZM104.292 53.6614C106.416 47.1075 110.108 42.6768 114.262 42.2152V53.6614H104.292ZM115.739 53.6614V42.1229C119.892 42.5845 123.585 47.0152 125.708 53.5691H115.739V53.6614ZM127.185 53.6614C125.708 48.7691 123.308 44.9845 120.539 42.7691C126.908 44.246 132.354 48.2152 135.677 53.6614H127.185Z" fill="black" fill-opacity="0.8"/>
</svg>
